<svg width="23" height="17" viewBox="0 0 23 17" fill="none" xmlns="http://www.w3.org/2000/svg">
<path d="M21.75 6.74707H18.7057C18.3426 3.48022 15.6389 0.916875 12.3138 0.762975C12.1624 0.320325 11.7474 0 11.2537 0H11.2463C10.7527 0 10.34 0.320175 10.1895 0.762825C6.86287 0.9153 4.15755 3.47917 3.79425 6.74707H0.75C0.335475 6.74707 0 7.08292 0 7.49707C0 7.91122 0.335475 8.24707 0.75 8.24707H1.70977L1.94677 8.9586C2.25367 9.87892 3.1113 10.4971 4.08105 10.4971H6.39503L7.80682 12.3457C7.905 12.4742 8.04195 12.5676 8.1972 12.6119C8.2917 12.6386 10.4846 13.255 13.7424 13.4374L15.4711 15.05L15.3471 15.1212C14.9882 15.3274 14.8637 15.7859 15.0703 16.1451C15.2087 16.3864 15.4614 16.5216 15.7214 16.5216C15.8481 16.5216 15.9763 16.4897 16.0942 16.422L20.8535 13.689C21.2124 13.4828 21.3369 13.0243 21.1304 12.6651C20.9238 12.3062 20.4661 12.1813 20.1064 12.3883L19.99 12.4552C19.6626 11.7562 19.1961 11.0451 18.7749 10.4689C19.5936 10.3385 20.2845 9.76447 20.5532 8.95837L20.7902 8.24722H21.75C22.1645 8.24722 22.5 7.91138 22.5 7.49722C22.5 7.08307 22.1645 6.74707 21.75 6.74707ZM10.5 2.24708H12C14.6392 2.24708 16.8242 4.20712 17.1902 6.74707H5.30993C5.67585 4.20712 7.86075 2.24708 10.5 2.24708ZM16.8324 14.2683L14.5664 12.1542C14.436 12.033 14.2676 11.9616 14.0896 11.9531C11.4646 11.829 9.49582 11.3914 8.8425 11.2298L8.28277 10.497H16.8958C17.4074 11.117 18.2681 12.2629 18.6835 13.2052L16.8324 14.2683ZM19.1308 8.484C19.0283 8.7909 18.7419 8.99707 18.4189 8.99707H4.08105C3.75802 8.99707 3.47167 8.7909 3.36915 8.48438L3.2901 8.24707H19.2098L19.1308 8.484Z" fill="#334155"/>
</svg>
