<svg width="35" height="20" viewBox="0 0 35 20" fill="none" xmlns="http://www.w3.org/2000/svg">
<path d="M24.5683 0C21.6727 0 19.0755 1.24254 17.2588 3.21626C15.4421 1.24254 12.8449 0 9.94932 0C4.45432 0 0 4.45432 0 9.94932C0 15.4443 4.45432 19.8986 9.94932 19.8986C12.8449 19.8986 15.4421 18.6561 17.2588 16.6824C19.0755 18.6561 21.6727 19.8986 24.5683 19.8986C30.0633 19.8986 34.5176 15.4443 34.5176 9.94932C34.5176 4.45432 30.0633 0 24.5683 0ZM9.94932 14.6122C7.37452 14.6122 5.28642 12.5241 5.28642 9.94932C5.28642 7.37452 7.37452 5.28642 9.94932 5.28642C12.5264 5.28642 14.6122 7.37452 14.6122 9.94932C14.6122 12.5241 12.5264 14.6122 9.94932 14.6122ZM24.5683 14.6122C21.9935 14.6122 19.9054 12.5241 19.9054 9.94932C19.9054 7.37452 21.9935 5.28642 24.5683 5.28642C27.1431 5.28642 29.2312 7.37452 29.2312 9.94932C29.2312 12.5241 27.1431 14.6122 24.5683 14.6122Z" fill="#EDC211"/>
</svg>
