<svg width="20" height="34" viewBox="0 0 20 34" fill="none" xmlns="http://www.w3.org/2000/svg">
<path d="M14.3902 15.6574V0.798458C14.3902 0.3768 14.7647 0 15.1886 0H19.0441C19.468 0 19.8426 0.3768 19.8426 0.798458V23.3235C19.8426 29.6708 15.5161 33.4792 9.96951 33.4792C4.42067 33.4792 0 29.5766 0 23.3706C0 18.2457 2.91796 13.7779 8.74715 13.5446C10.0637 13.5446 12.6026 13.7779 14.3879 15.6596L14.3902 15.6574ZM14.3902 23.4648C14.3902 19.8919 11.8042 18.7167 9.82821 18.7167C7.85449 18.7167 5.40753 20.1274 5.40753 23.5141C5.40753 26.8964 7.94869 28.3071 9.96951 28.3071C11.9432 28.3071 14.3879 27.1319 14.3879 23.4648H14.3902Z" fill="#2699F0"/>
</svg>
