<svg width="20" height="20" viewBox="0 0 20 20" fill="none" xmlns="http://www.w3.org/2000/svg">
<path d="M3.33398 1.66797V18.3346L5.00065 17.5013L6.66732 18.3346L8.33398 17.5013L10.0007 18.3346L11.6673 17.5013L13.334 18.3346L15.0007 17.5013L16.6673 18.3346V1.66797L15.0007 2.5013L13.334 1.66797L11.6673 2.5013L10.0007 1.66797L8.33398 2.5013L6.66732 1.66797L5.00065 2.5013L3.33398 1.66797Z" stroke="#FF4F4F" stroke-width="1.66667" stroke-linecap="round" stroke-linejoin="round"/>
<path d="M13.3327 6.66797H8.33268C7.89065 6.66797 7.46673 6.84356 7.15417 7.15612C6.84161 7.46869 6.66602 7.89261 6.66602 8.33464C6.66602 8.77666 6.84161 9.20059 7.15417 9.51315C7.46673 9.82571 7.89065 10.0013 8.33268 10.0013H11.666C12.108 10.0013 12.532 10.1769 12.8445 10.4895C13.1571 10.802 13.3327 11.2259 13.3327 11.668C13.3327 12.11 13.1571 12.5339 12.8445 12.8465C12.532 13.159 12.108 13.3346 11.666 13.3346H6.66602" stroke="#FF4F4F" stroke-width="1.66667" stroke-linecap="round" stroke-linejoin="round"/>
<path d="M10 14.5846V5.41797" stroke="#FF4F4F" stroke-width="1.66667" stroke-linecap="round" stroke-linejoin="round"/>
</svg>
